<svg xmlns="http://www.w3.org/2000/svg" viewBox="0 0 122.4 124.31">
  <defs>
    <style>
      .cls-3{fill:#f2ebdd}
    </style>
  </defs>
  <g id="Layer_2" data-name="Layer 2">
    <g id="Layer_1-2" data-name="Layer 1">
      <path fill="#a41e22" d="M0 0h122.4v124.31H0z"/>
      <g opacity=".65">
        <path class="cls-3" d="M116.62 116.12H82.5c.6-1.53 1.21-3.15 1.81-4.86H116.27v-.63c-.32-14.17-.5-28.52-.51-42.66 0-13.8.14-29.9.47-45.34V22h-.66c-1.14.06-2.35 1.05-3.54 2.55-3 3.81-5.8 10.78-6.91 14-.55 1.6-1.21 3.86-1.79 6-.81 2.88-1.47 5.43-1.48 5.48s-3.26 12.19-6.2 20.66c-.93 2.69-2.29 7.3-3.86 12.64-3.18 10.79-7.49 25.38-11.37 34.63-2.07-4.52-4.45-12.26-6.59-19.35-.1-.32-.2-.64-.29-1-1.29-4.25-2.51-8.27-3.59-11.4-3.48-10.11-6-17.52-8.14-24l-.56-1.7-.6 1.69c-1.07 3-2.82 8.63-4.85 15.15-4.07 13.1-9.58 30.82-13.63 40.41C37 106.6 32 89.52 29.31 80.19l-.89-3c-3.34-10.6-5.31-17.09-6.61-21.39-.62-2-1.07-3.54-1.42-4.67 0-.12-4-11.74-7.35-20.76a30.09 30.09 0 00-2.76-5.07h.06l-.34-.61c-.9-1.34-1.61-2.4-3.37-2.48h-.64V111.5h32.16c.6 1.58 1.22 3.11 1.84 4.57L5.55 116v1.23h35c.36.81.71 1.6 1.07 2.35l.58 1.22.54-1.23c.32-.72.65-1.52 1-2.34h35c.39.94.78 1.79 1.15 2.51l.6 1.14.52-1.18c.34-.77.68-1.61 1-2.46h34.61zm-6.41-6.05l-1.56-3a3.18 3.18 0 00.77-1.93 9.69 9.69 0 00-.13-2.46l2.32 1.65c1.16.81 2.32 1.63 3.33 2.38 0 1.11 0 2.23.07 3.34zM99.29 76.48a8.88 8.88 0 001.28-2.69 7.19 7.19 0 00.1-3.2 8.08 8.08 0 01-.11-1.73 6 6 0 011.44-3.25c.3-.42.61-.86.92-1.36a15.06 15.06 0 002-6.8c.11-.93.23-1.9.43-3a41.5 41.5 0 012.83-7.73 48.46 48.46 0 000 5.83 25.63 25.63 0 00.67 3.72 10.25 10.25 0 01.4 3.7 11.5 11.5 0 01-1.56 5.18 6.22 6.22 0 00-1 4.46 7.75 7.75 0 002.14 3.89 7 7 0 012.17 3.91 8.42 8.42 0 01-1.24 4.91 7.71 7.71 0 00-1-1.14 7.26 7.26 0 00-9.68-.46c-1.52 1.32-2 3.51-1.38 6.16a5.41 5.41 0 003.5 3.52 6.39 6.39 0 01-6.05-3.27c-.53-1.23-1.24-3.61 0-5.68a10.72 10.72 0 011.66-2 17.88 17.88 0 002.48-2.97zm3.77-26.24l1.94 1c-.27.76-.5 1.48-.67 2.13l-2-.57c.39-1.42.62-2.3.63-2.33zm1 4.31c-.17 1-.29 1.94-.38 2.75-.06.47-.12.92-.18 1.36l-2.56-.9c.41-1.42.77-2.71 1.08-3.81zm-.77 5.34a11 11 0 01-1.45 3.72l-2.31-1c.37-1.26.74-2.49 1.08-3.65zm-2.15 4.77l-.17.24a10.49 10.49 0 00-1.27 2.15c-.34-.08-.71-.16-1.1-.23l-.37-.07c.31-1 .62-2 .92-3zM98.39 68l1 .21c0 .17 0 .35-.06.53a8.28 8.28 0 00.12 2c0 .28.07.56.09.83L96.86 71c.34-1 .68-2 1-3zm9.35 29.71a14 14 0 001-1.15c.86.52 2 1.16 3.06 1.8s2.13 1.24 3 1.75c0 1.69.07 3.37.1 5-.82-.59-1.7-1.22-2.59-1.84-1.19-.85-2.39-1.69-3.42-2.45a17.67 17.67 0 00-1.15-3.08zm4.73-.41l-2.94-1.73a13.84 13.84 0 001.36-2.57l1.85.66 2 .71.06 4.3zm-3.64-31.61c.14-.26.29-.55.44-.85l5.24-.08v3.44l-6.6.23a6.08 6.08 0 01.92-2.71zm2.6 25.59a11.6 11.6 0 00.27-2.19l1.38.22 1.58.25v3.48c-.48-.16-1-.36-1.55-.55l-1.88-.67c.1-.15.16-.33.2-.51zm3.15-41.51l-2.76.08-2.47.07v-2.47l2.77-.81c.84-.24 1.68-.48 2.46-.72.03 1.32.02 2.6 0 3.88zm-2.72 1.31l2.71-.08v3.29l-4.79.13c-.11-.57-.22-1.23-.3-2 0-.37-.06-.79-.08-1.24zm2.68 4.45v3.29h-4a12.22 12.22 0 00-.44-2.82c0-.09 0-.2-.07-.3zm-4 4.52h4v3.47l-4.71.08a12.4 12.4 0 00.7-3.52zm4 9.36v3.85c-.9 0-1.45.09-2 .15s-1 .11-2 .14l-.74-.89a6.88 6.88 0 01-1.79-3zm-1.84 5.23c.5-.06 1-.11 1.86-.15v4.32h-2.37a6.35 6.35 0 000-1.63 7 7 0 00-.81-2.45zm-.7 5.46h2.6v3.91l-1.9-.68c-.61-.21-1.22-.42-1.75-.62A10.68 10.68 0 00112 80.1zm.32 4.37c.85.29 1.69.59 2.33.83v3l-1.37-.22-1.59-.26a11.47 11.47 0 00-1-4zm2.34-39.81l-2.81.82-2.39.7v-.85c0-.59.05-1.09.06-1.47v-.3c.92-.63 2-1.42 3-2.19.72-.55 1.46-1.11 2.15-1.61zM96.36 90.3a7.64 7.64 0 004.34 1.37 8.19 8.19 0 002.88-.54l.28.06a10.93 10.93 0 01-2 2.21 12.23 12.23 0 01-10.17 2.52zm6.26 4a12 12 0 002.85-3.41L106 90h-1a7 7 0 01-2.74-.54l-.22-.09c-.94-.37-2.7-1.07-3.1-2.8-.37-1.54-.49-3.65 1-4.94a6.1 6.1 0 018 .42 9.62 9.62 0 012.34 9 12.34 12.34 0 01-5.56 7.57 17 17 0 01-8.92 2.4 24.71 24.71 0 01-5.35-.45 9.82 9.82 0 01-2.34-.61c.35-1.13.71-2.27 1-3.4a13.9 13.9 0 0013.51-2.21zm2.7 5.3a13.94 13.94 0 001.46-1.06 15 15 0 011.41 6.45c0 .51-.2 1.15-.61 1.34-.6.27-1.44-.55-1.68-.81a18.42 18.42 0 01-3-4.71 16.62 16.62 0 002.42-1.16zM115 23.48c-.1 4.89-.18 9.84-.25 14.75-.91.63-1.93 1.4-2.92 2.16-.64.48-1.28 1-1.91 1.43.9-4.85 2.54-13.22 3.27-16.64a6.57 6.57 0 011.81-1.7zm-6.44 18.93q-.31-.72-.66-1.47c-.44-1-.87-2-1.25-2.86a61.63 61.63 0 014.73-10.26c-.92 4.38-2.19 10.9-2.86 14.59zM106 39.82l.73 1.63c.43 1 .86 1.92 1.23 2.81-.25.51-.58 1.22-1 2l-2.32-2.06c.49-1.5.95-3.09 1.36-4.38zm.48 7.67c-.36.82-.72 1.69-1 2.56l-2.06-1c.23-.89.57-2.12.94-3.46zm-10 24.65l3 .71a5.18 5.18 0 01-.12.62 8.17 8.17 0 01-1.13 2.35 12.75 12.75 0 01-1 1.38l-2-1c.43-1.56.86-2.93 1.23-4.06zm-3.55 11.64c.68-2.3 1.31-4.45 1.89-6.38l1.53.75-.47.48a12 12 0 00-1.88 2.2c-1.48 2.54-.65 5.34 0 6.79a6.29 6.29 0 001.41 1.9l-5.1 6.1-.84-.26c1.24-4.06 2.41-8.03 3.46-11.58zm-5.25 17.34a11.42 11.42 0 002.48.64 25.38 25.38 0 005 .48h.57a20.45 20.45 0 006-1 23.63 23.63 0 001.72 3.18h-6.28c-2.28 0-4.63.06-7.36 0v1.24H97.2c2.22 0 4.51-.06 7.15 0 .2.24.4.48.62.71a3.34 3.34 0 002.31 1.25h.23l1.27 2.42h-24c.95-2.87 1.94-5.88 2.9-8.92zm-72.22 5.46c-.64.61-1.6 1.1-2.21.71s-.64-1.06-.5-2.36c.13-1.11.31-2.43.5-3.74.13-.9.26-1.79.36-2.62a11 11 0 001.29 1.35 12.35 12.35 0 002.86 1.86 7.78 7.78 0 01-2.3 4.8zm3.75-55.11c.17.53.36 1.16.58 1.88l-1.55.3a19.23 19.23 0 00-.55-3.57l.93-.34c.38 1.07.58 1.71.59 1.73zm1.42 4.65c.15.47.3 1 .46 1.5l-2.69.71a21.08 21.08 0 01-.14-3.17 2.09 2.09 0 000-.25l1.89-.37c.15.46.31 1.01.48 1.58zm7.49 24.42c.24.8.49 1.67.76 2.58a19.82 19.82 0 00-2.3-2.46l-.39-.38 1.81-.12zm-.94 12.51a22.29 22.29 0 011.74 1.69c.58.6 1.18 1.22 1.73 1.69a9.5 9.5 0 01-5.31 0A8.32 8.32 0 0122.08 95a8.41 8.41 0 01-1.68-1.74A10.08 10.08 0 0024 94a5.92 5.92 0 003.18-.95zm2.63.83c-.55-.57-1.12-1.15-1.65-1.62a7 7 0 002.1-4.49c.72 2.42 1.52 5 2.37 7.72a8.88 8.88 0 01-.88.5l.12-.17a16.75 16.75 0 01-2.06-1.94zm-4.07-12.32a13 13 0 012.74 3.23 5.81 5.81 0 01-1.63 7c-1.43 1.07-3.18 1.23-5.42.49A6.55 6.55 0 0024.2 90a5.36 5.36 0 00-1.2-7.08 6.77 6.77 0 00-7.27-.49 8.06 8.06 0 00-1.47 1c-1.43-3.12-1.42-5.19-.88-6.11A5.08 5.08 0 0115 75.85c.74-.52 1.5-1.06 1.4-2s-.79-1.3-1.46-1.76-1.39-1-1.49-1.77a1.5 1.5 0 010-.37 8.86 8.86 0 01.71-2.18c.17-.43.37-1 .61-1.58a13.63 13.63 0 00.74-2.2c.18-1.54-.44-3.18-1.91-4.94-1.17-1.44-2.33-5.75-1.38-18 3.36 5.19 5 9.92 4.81 14.09a22.47 22.47 0 001.29 8.42A6 6 0 0020 65.89a5 5 0 011.38 1.89 14.29 14.29 0 011.06 4.56c0 .5-.05 1-.1 1.51a9.46 9.46 0 000 2.71c.36 2.12 1.9 3.58 3.4 5zm-15.1-33.4L8.88 48l-1.67-.17v-2.55h3.51c-.05 1.02-.07 1.97-.08 2.88zm.14-4.11H7.21V41l3.71.9c-.06.73-.1 1.45-.14 2.15zm-3.57 5l1.56.16 1.86.19c0 1.27 0 2.44.13 3.5l-3.55-.5zm5.51 10.85a7.16 7.16 0 011.43 2.51l-3.49-.2L7.2 62v-3.16h4.86a4.92 4.92 0 00.66 1.07zm-5.53 6.79v-3.44l3.4.2 3.7.22a.91.91 0 010 .17 17 17 0 01-.67 1.92c-.14.38-.27.71-.39 1H7.2zm5 3.77a4.12 4.12 0 00.12.53c-.83.17-1.71.37-2.61.57l-2.55.55v-4h5.55a6.53 6.53 0 00-.52 1.83 2.45 2.45 0 00.04.52zm-5 2.91C8.06 73.19 9 73 10 72.76s2.09-.46 3-.65a7.12 7.12 0 001.23 1c.44.31.9.63.93.88s-.41.53-.88.86A8.43 8.43 0 0012.89 76l-3.26.16c-.84 0-1.68.1-2.45.13zm4.76 6.71l-4.77.16v-2.7l2.52-.13 2.4-.13a6 6 0 00-.16 2.8zM7.17 91.33L9.06 91l2-.31a11.45 11.45 0 00.25 2.86c-.69.29-1.48.59-2.27.9l-1.83.72zm0 5.2c.68-.28 1.47-.59 2.27-.9s1.49-.57 2.14-.84a12.31 12.31 0 00.95 2.21l-5.36 2.75zm4.22-8.27a9.68 9.68 0 00-.25 1.19l-2.27.36-1.7.27v-4h5.12a9.81 9.81 0 00-.9 2.18zm1.68-3.48h-5.9v-3.3l5-.17a17.9 17.9 0 001.19 3.1c-.08.12-.19.24-.29.37zm10.43-14h1.63l1 3.22-2.59.1v-.12c.05-.53.1-1.08.1-1.64a9.07 9.07 0 00-.14-1.57zm-.27-1.23c-.21-.76-.45-1.48-.69-2.17-.05-.15-.13-.28-.19-.42l1.46-.43c.29 1 .6 2 .93 3zm-1.57-3.67c-.26-.3-.53-.58-.8-.85a8.7 8.7 0 01-1-1.14l2.87-.81c.22.71.45 1.47.69 2.27zm-2.29-3.12a23.26 23.26 0 01-.8-3.19l2.88-.76c.28.94.59 2 .93 3.08zm-2-13.87A29.93 29.93 0 0016.32 46l.91-.36c.37 1.08.71 2.06 1 2.89zm-1.56-4c-.3-.63-.62-1.28-1-1.93l1.14-.9c.3.84.58 1.66.85 2.43zm-1.61-3c-.42-.71-.87-1.43-1.36-2.15l1.46-2.42 1.24 3.51zm-3.08-2.65c0 .47-.07.92-.11 1.38l-3.8-.93v-3.47c.49.34 1 .72 1.55 1.11.8.57 1.61 1.16 2.29 1.57.02.1.05.25.07.36zm-.24 14.91a18.93 18.93 0 00.69 3.44H7.2v-4zm-3.71 47l5.22-2.72c-.11.82-.23 1.7-.36 2.59-.08.56-.16 1.12-.23 1.66-.81.5-1.76 1-2.68 1.5-.65.36-1.32.72-1.95 1.08zM15.71 99a10.52 10.52 0 01-3.13-10.42 8 8 0 013.78-5.06 5.53 5.53 0 015.91.36 4.16 4.16 0 01.93 5.42 4.82 4.82 0 01-3.15 2.1 4 4 0 01-1 0L18 91.24l.45 1a9.36 9.36 0 006.63 5.43 10 10 0 008-1c.35 1.09.71 2.2 1.08 3.31a18.94 18.94 0 01-7.93 1.91c-4.23.37-8.02-.7-10.52-2.89zm12-20.06l-2.61.18a4.92 4.92 0 01-1.59-3.79l3.05-.12.73 2.3zM11.89 30.78c.62 1.63 1.25 3.35 1.87 5.07l-1.55 2.57c-.44-2-.82-4.29-1.19-6.53-.24-1.48-.49-3-.76-4.41a30.82 30.82 0 011.63 3.3zM8.6 24.86h-.13C9 27 9.39 29.61 9.8 32.09c.28 1.71.57 3.46.89 5.1l-1.2-.86c-.79-.58-1.6-1.16-2.28-1.58V23.56a2.85 2.85 0 011.39 1.3zm-1.43 81.82c.78-.47 1.67-1 2.54-1.42l1.89-1c0 .2 0 .39-.07.58a4.15 4.15 0 00.64 3.18l-.49 1c-.2.44-.41.88-.56 1.22H7.18c-.01-1.24-.01-2.38-.01-3.56zm16.22 3.57H12.48l.32-.7c.16-.33.31-.65.44-.94a2.24 2.24 0 00.51.07 4 4 0 002.56-1.2 8.28 8.28 0 00.74-.83h2.59c5.19 0 10.44-.18 13.35-.29l-.05-1.24c-3.23.13-9.36.33-15.06.28a9 9 0 001.12-3.13 16.77 16.77 0 005.69 1q.8 0 1.62-.06a19.85 19.85 0 008.22-2c1 3.06 2.09 6.13 3.2 9.07zm33.7-32.89l2.51 1a7 7 0 01-.66 2 7.62 7.62 0 01-.51.88h-2.54l1-3.37zm15.65 22.17c.24.77.48 1.55.71 2.33a9.82 9.82 0 00-2.17-1.33c-.23-.11-.47-.2-.71-.29a3.5 3.5 0 01-1.29-.7 4 4 0 01-.7-.86 3 3 0 00-.58-1.92l1.13.66c1.22.69 2.41 1.39 3.61 2.11zm-6.92-3.59c1.1 1.27 1.76 2.08 1.47 2.93-.21.57-.71.82-1.67 1.24a8 8 0 00-3.41 2.42 7.89 7.89 0 00-1.06 1.8 7.8 7.8 0 00-1-1.86 8 8 0 00-2.84-2.47c-.83-.48-1.27-.76-1.46-1.37-.29-.92.33-1.72 1.35-3s2.41-2.88 2.31-5.18a6.08 6.08 0 00-1-2.88 3.75 3.75 0 01.3-4.8 11.3 11.3 0 001.2-1.87c1.13-2.29 1-4.23.75-6.47-.07-.76-.14-1.57-.18-2.48v-.55a13.09 13.09 0 01.48-4.7l.24.93A13.51 13.51 0 0162 72c0 .82-.07 1.56-.11 2.25-.14 2.45-.25 4.38.93 6.7a11.9 11.9 0 001.11 1.73 4.18 4.18 0 011 2.16 4.06 4.06 0 01-.7 2.73 6.12 6.12 0 00-.94 2.81c-.18 2.43 1.33 4.17 2.53 5.56zm-.54-7.77a6.62 6.62 0 00.8-1.94c.36.21.74.43 1.11.66.69.4 1.37.8 2 1.13.45 1.34.92 2.81 1.4 4.37L64.85 89c.15-.27.28-.55.43-.83zm2.54-2.35c-.58-.34-1.14-.67-1.68-1v-.16A5.28 5.28 0 0064.9 82l2-.59 1.69 4.91zM64.26 81c-.12-.2-.24-.4-.36-.64a7.51 7.51 0 01-.66-1.83l2.33-1.08c.3.88.6 1.79.92 2.72l-2.27.68zm-1.21-3.74a23.26 23.26 0 01.06-3c0-.7.08-1.46.1-2.29a11.51 11.51 0 00-.07-1.72 468.1 468.1 0 012 6zm-3.68-5.79v.55c0 .93.11 1.76.18 2.54s.15 1.73.14 2.51l-2.25-.91c.66-2.14 1.29-4.16 1.87-6 .02.44.04.84.06 1.33zm-3 11h1.15a4.58 4.58 0 00-.94 2.31 5.08 5.08 0 000 .77c-.88.28-1.54.5-2.32.81.42-1.33.83-2.64 1.23-3.94zm-2.62 5.46c1.2-.51 1.91-.76 3-1.12a8.25 8.25 0 00.68 1.43c.13.24.26.48.38.72-1.25.62-2.24 1-3.27 1.47-.57.24-1.17.49-1.84.79.4-1.13.75-2.22 1.09-3.31zm-1.54 4.87c1.09-.51 2-.88 2.81-1.23 1-.41 2-.82 3.16-1.41 0 .13.05.26.06.41a4.87 4.87 0 01-1 3.08c-2.13.85-4 1.71-6 2.63h-.12zm-1.66 5.13l1.16-.53c1.31-.61 2.58-1.19 3.9-1.75a5.4 5.4 0 00-1 1.7 18.07 18.07 0 00-5.05 3.65zm-2.29 7.82h1.14a19.84 19.84 0 012.05 0l.09-1.23h-3.17l.12-.35a18.73 18.73 0 016.11-5.42 1.84 1.84 0 00.05.25 3.67 3.67 0 002 2.07 7 7 0 012.49 2.12 6.77 6.77 0 01.78 1.57h-6V106h6.3a9.81 9.81 0 01.18 1.84h1.23A9.18 9.18 0 0162 106h7.11v-1.24H62.4a6.43 6.43 0 01.83-1.44 6.76 6.76 0 012.94-2.05A4.94 4.94 0 0068 100l.38.39a4.54 4.54 0 001.73 1c.21.08.42.16.62.26a6.75 6.75 0 013.49 3.15H72v1.2h2.75c.44 1.4.88 2.77 1.32 4.09-4.74 0-9.72 0-14.71.08s-10.16.08-15 .08c.53-1.46 1.06-3 1.61-4.56zm21.48-9.38c-1.31-.75-2.61-1.51-3.93-2.3a5.27 5.27 0 01-1.36-3.6 1.38 1.38 0 010-.2l6.59 3.89 1.11 3.65zM44.2 116.06c.56-1.4 1.13-2.92 1.72-4.54 5 0 10.2 0 15.45-.08s10.25-.08 15.12-.08c.58 1.7 1.15 3.3 1.72 4.73z"/>
        <path class="cls-3" d="M19.63 15.83v-.59c.12-2.68 1.6-4.41 3-4.54a3.11 3.11 0 012.32 1.06 4.4 4.4 0 011.25 3.3v.65h10.58c1.11 2.76.72 3.42.26 4.17a3.1 3.1 0 01-1.47 1A11.22 11.22 0 0033 22.41a11.9 11.9 0 00-2.83 3.67c-1.72 3.12-.42 7.51.14 9.39l.07.26c.51 1.74 1.28 4.44 2.28 8 2.59 9.05 6.91 24.19 12.32 42.6l.66 2.24.53-2.28a212.17 212.17 0 017.85-26.56l.07-.19a30.44 30.44 0 002.33-10.94 31.11 31.11 0 00-2.41-12.2c-.2-.49-.42-1.06-.65-1.68-1.3-3.38-3.26-8.49-6-11.49a6.33 6.33 0 00-.83-.72 5.44 5.44 0 01-1.73-2 14.76 14.76 0 01-.4-3.31v-1.43h31.19l.19.51a3.79 3.79 0 01.15 3.54A4.34 4.34 0 0173 22.15a7.33 7.33 0 00-3.16 2c-4.43 4.86.56 18.66.61 18.79A393.91 393.91 0 0183.11 85l.56 2.24.63-2.24q3.49-12.28 6.42-22.79c1.89-6.75 3.63-13 5.28-18.73a51.75 51.75 0 001.47-9.31v-.07c.21-3.97-.22-8.1-2.47-10.1a7.82 7.82 0 00-1.89-1.19 5 5 0 01-2.47-2.09 6.85 6.85 0 01-1.19-4.94h8.37v-.63a3.53 3.53 0 014.88-3.33 3.69 3.69 0 012.2 3.41v.62l11.2-.05v-.64-2.63-3.97h-.5l-.17-2.21-1.23.09.17 2.12h-4.51V6.37h-1.24v2.18H104V6.4h-1.23v2.15h-4.31V6.37h-1.23v2.17h-4.16V6.4h-1.23v2.14h-4.15l-.17-2.2-1.23.09.16 2.11h-4.54V6.37h-1.23v2.15H76V6.37h-1.27v2.15H68.9V6.37h-1.24v2.14h-5.27V6.37h-1.23V8.5h-3.6V6.4h-1.24v2.1h-4.53V6.37h-1.23v2.12H46.4V6.37h-1.24v2.12h-4V6.37H40v2.11h-3.83V6.37h-1.23v2.11H31.3l-.15-2.14-1.23.08.14 2.06h-3.19V6.37h-1.23v2.1h-3v-2.1h-1.28v2.09h-3.6V6.37h-1.23v2.09h-3.6V6.37h-1.24v2.09H8.47V6.37H7.23v2.08H6v.74l-.18 6.49zm-1.16-1.24l-11.35-.13.11-4.17h13.38a6.46 6.46 0 00-2.14 4.3zm15.34 8.78A10.37 10.37 0 0136.1 22a7.82 7.82 0 001.25-.7c.29.49.56.93.8 1.31 1.12 1.76 1.57 2.51 1 5-1.18-.31-2.62-.62-4-.92-1.17-.26-2.36-.52-3.4-.77a9.75 9.75 0 012.06-2.55zm-2.72 3.73c1.12.29 2.44.57 3.73.85s2.73.6 3.87.89c-.21.37-.48.76-.76 1.16a11.74 11.74 0 00-.84 1.28l-6.19 1.38a9.66 9.66 0 01.19-5.56zm.44 8c-.1-.34-.23-.77-.35-1.25l5.43-1.22a5.6 5.6 0 00.39 3.11l-2.28.95-2.48 1c-.26-.91-.48-1.7-.67-2.35zm1.09 3.8l2.61-1.09 2.32-1c.07.13.14.26.2.39a16.48 16.48 0 001.36 2.05l.77 1.08L37 41.88l-3 1.56v-.09zm17.5 3l4.51.56a26.44 26.44 0 01.48 3.24l-5.77-1.56a10.53 10.53 0 00.78-2.24zm-1.27 3.39L55.2 47v1.54c0 .54 0 1.32-.1 2L48 48.15a18.45 18.45 0 01.85-2.86zm-1.06 4.08L55 51.74a28.12 28.12 0 01-1.14 4.94l-6.65-3.28c.16-1.35.34-2.72.58-4.03zm-1.45 11.15c0-.28.1-.58.14-.88l4.68 4.46c-1.56 4.58-3.08 9.71-4.53 15.34-.06-5.99-.19-13.53-.29-18.92zM44 57.5c-.81 1.55-1.54 2.74-2.26 3.87-.58.93-1.18 1.89-1.83 3.06L38.38 59c1-.88 1.89-1.67 2.79-2.45l2.25-2c.2 1.02.4 1.99.58 2.95zm-3.67-1.85L38 57.71c-.39-1.37-.76-2.67-1.13-3.94l5.79-3c.16.79.32 1.61.48 2.44zm-3.84-3.09q-.5-1.76-1-3.36l6.11-3.41c.24 1.14.49 2.4.75 3.7zM35.21 48c-.33-1.18-.65-2.29-1-3.33L37.54 43l3-1.53a4.62 4.62 0 01.29.71c.19.66.38 1.47.59 2.37zm5.22 18.14c.85-1.67 1.62-2.9 2.36-4.08a67.3 67.3 0 001.65-2.73c.17.74.34 1.47.52 2.17l.18.68c.11 6.54.25 15.37.28 21.11-1.8-6.17-3.42-11.92-4.99-17.17zm12.47-6.89c-.43 1.14-.87 2.34-1.3 3.57l-4.92-4.7c.08-.68.15-1.39.24-2.15 0-.41.09-.84.14-1.27l6.36 3.16q-.24.66-.45 1.2zm1.44-18.07l-4.05-.51a7 7 0 00-.52-3.06l3.52.19a30.77 30.77 0 011.05 3.38zm-1.55-4.64l-3.63-.2a18.75 18.75 0 00-2.07-2.79L51 31.89c.48 1.16.91 2.27 1.28 3.23zm-6.74-4.15a7 7 0 01-1.57-2.55 10.09 10.09 0 014-3 38.78 38.78 0 012 3.91l-4.26 1.83zm.41-8.39a14.44 14.44 0 011.35 1.75 11.25 11.25 0 00-3.67 2.57A15.14 15.14 0 0145 23v-.18a7.31 7.31 0 00.81.68 4.42 4.42 0 01.65.5zm-2.72-3q.15.27.3.51c-.09.35-.19.71-.28 1.07-.9 3.29-1.91 7 1.39 10.59 3.64 3.94 5 6.54 3 10.66-1.43 2.85-2 7.68-2.41 12-.09.79-.17 1.57-.26 2.3-.57-2.56-1.1-5.29-1.59-7.78-.7-3.35-1.32-6.52-1.89-8.53a11.38 11.38 0 00-1.9-3.25 15.19 15.19 0 01-1.25-1.87c-.81-1.59-1.36-2.83-1-4.22a6.31 6.31 0 011-1.76 7.3 7.3 0 001.23-2.2c1-3.51.28-4.59-1-6.55-.3-.47-.64-1-1-1.63.58-1 .85-2.06-.1-4.62h5.08v1.49a14.16 14.16 0 00.68 3.85zm29.73 2.3a5.53 5.53 0 003.39-2.63c2.55 2.69 3.75 4.51 2.64 5.64A12.4 12.4 0 0078.09 28l-7.58-2.7a2.66 2.66 0 01.28-.38 6.23 6.23 0 012.68-1.62zm5.2 11.27a17.21 17.21 0 01.89 1.79L70.4 38.3a39.22 39.22 0 01-1-5.31h8.41c.29.52.58 1.01.86 1.58zm-8.76-8.16l7.55 2.69a4.69 4.69 0 00-.3.75 3.3 3.3 0 00.18 1.9h-8a13 13 0 01.57-5.34zm.8 13.09l9.18-1.94c.34 1.28.64 2.64.89 4.06L72.58 45c-.32-.86-.63-1.72-.94-2.56-.24-.6-.58-1.66-.93-2.94zm16.45-.24l4.18.47 4.13.46a35.55 35.55 0 01-.66 2.92l-.4 1.4-7.7-1.9c.13-1.18.29-2.31.45-3.35zm-.59 4.59l7.51 1.84c-.41 1.42-.81 2.86-1.23 4.33l-3.39-1.38-3.25-1.31c.05-.47.09-.94.14-1.4.07-.7.15-1.4.22-2.08zm-.5 4.75L89 49.79l3.52 1.42c-.42 1.49-.85 3-1.28 4.55L85.49 53c.23-1.41.41-2.89.58-4.4zm-5.15 14.54c.71-.92 1.5-2 2.41-3.18v6.65c0 4.81 0 10.1-.12 13.58q-2-7.81-4-14.73c.49-.74 1.06-1.46 1.71-2.32zm-2.2.84q-1.12-3.84-2.25-7.41C77.71 56 78.86 55.49 80 55l2.74-1.25c.19.88.4 1.72.63 2.54v1.58c-1.38 1.89-2.46 3.31-3.42 4.55-.45.58-.84 1.05-1.23 1.58zm5.81 2.64V59.9l1.35 1.71c.84 1 1.67 2.09 2.71 3.46l-4.22 15c.12-3.52.14-8.72.16-13.45zm-5-12.78l-3.43 1.55c-.46-1.43-.92-2.83-1.37-4.19l7.13-2.47c.19 1.27.4 2.52.64 3.75zM74.33 50c-.44-1.31-.89-2.59-1.34-3.85l8-3.31c.2 1.21.38 2.43.56 3.64 0 .32.09.65.14 1zm15.2 11.81l-.48 1.74c-.79-1-1.47-1.88-2.16-2.74s-1.44-1.8-2.3-2.93v-1.26a22.53 22.53 0 00.6-2.42L90.9 57c-.45 1.56-.9 3.19-1.37 4.84zM95.68 39l-4.2-.47-4.09-.53c.06-.31.13-.61.2-.9a7 7 0 011.11-2c.13-.18.25-.37.38-.56l7.14-.34a44.19 44.19 0 01-.54 4.8zm-5.83-7.89a6.41 6.41 0 00-.44-.77l6.53-1.75a20.65 20.65 0 01.33 4.4l-6.49.31a2.69 2.69 0 00.07-2.22zm2.72-7.18a6.16 6.16 0 011.6 1 5.63 5.63 0 011.46 2.48l-7.08 1.89-.59-.6a5.57 5.57 0 01-1.75-2.48c-.34-1.52.86-2.81 2.67-4.76.15-.16.31-.34.47-.5l.25.44a6.25 6.25 0 002.97 2.5zm-3.82-4.16l-.77.84c-2 2.16-3.46 3.72-3 5.87a6.55 6.55 0 002.08 3.09 7.47 7.47 0 011.63 2c.35.79-.32 1.78-1 2.82a8.1 8.1 0 00-1.29 2.44 72.63 72.63 0 00-1.27 9c-.29 2.83-.59 5.74-1.06 8.16-.55-2.41-.93-5.06-1.3-7.64a72.51 72.51 0 00-2-10.15 15 15 0 00-1-2.2c-.69-1.27-1.63-3-1.41-3.79a8.25 8.25 0 012-3c2.19-2.23-.69-5.37-3-7.74a5.26 5.26 0 00-.44-3.63v-.06H88.2a7.83 7.83 0 00.55 3.96zm10-8.66a4.87 4.87 0 00-2.09 3.44H27.45a5.49 5.49 0 00-1.61-3.61 6.23 6.23 0 00-.72-.59h35.84q19.8 0 39.61.08a5.45 5.45 0 00-1.86.65zm16.13 1.39v2.07h-8.75a4.9 4.9 0 00-2.91-3.93 4.51 4.51 0 00-.84-.26h12.53c-.04.72-.06 1.41-.07 2.09z"/>
      </g>
      <path class="cls-3" d="M20.64 46.8C14.4 26.59 11.87 19.38 6 18.85v-2c5.37 0 9.86.91 13.59.91s10.3-.91 15.67-.91v2c-5.48 0-7.57 2.5-7.57 7.61 0 4.33 1.54 10.63 3.73 18.63l14 50.9 14.23-47.75c-5.92-19-9.09-28.47-13.15-29.39v-2c5.48 0 9.65.91 13.37.91s8.77-.91 14.14-.91v2c-6.25.27-8.11 4.2-8.11 9.06 0 4.46 1.86 10.89 3.1 15.09l14.54 53 13.59-48.42a60.66 60.66 0 002.41-15.21c0-6.56-1.86-12.34-7.78-13.52v-2c5.48 0 9.31.91 13.15.91s6-.91 11.4-.91v2c-5.37.4-9.43 8-13.7 22.57l-21.26 72.42H79.6l-18.3-60-18.09 60h-1.75z"/>
    </g>
  </g>
</svg>